<?xml version="1.0" encoding="utf-8"?>
<!-- Generator: Adobe Illustrator 20.1.0, SVG Export Plug-In . SVG Version: 6.00 Build 0)  -->
<svg version="1.1" id="Ebene_1" xmlns="http://www.w3.org/2000/svg" xmlns:xlink="http://www.w3.org/1999/xlink" x="0px" y="0px"
	 viewBox="0 0 233.8 70.7" style="enable-background:new 0 0 233.8 70.7;" xml:space="preserve">
<style type="text/css">
	.st0{fill:#BBCE00;}
	.st1{fill:#A1A4AB;}
</style>
<g>
	<path class="st0" d="M32,3C14.3,3,0,17.4,0,35.1s14.3,32,32,32s32-14.3,32-32S49.7,3,32,3z M32,60.1c-13.8,0-25-11.2-25.1-25h5.3
		c0,9.9,7.5,18.2,17.1,19.5V29.9h-5.5v-5.3h5.5v-9.1c-3.2,0.4-6.1,1.6-8.7,3.4l-3-4.4c4.1-2.8,9-4.5,14.3-4.5
		c5.4,0,10.3,1.7,14.4,4.6l-3,4.4c-2.5-1.8-5.5-3-8.8-3.5v9.1h5.8v5.3h-5.8v24.7c9.6-1.3,17-9.5,17.1-19.5h5.3
		C57,48.9,45.8,60.1,32,60.1z"/>
	<path class="st1" d="M138.6,32.1v19.6h-5.3V32.1c0-6.1-1.8-7.9-7.8-7.9c-6,0-7.8,1.7-7.8,7.9v19.6h-5.2V32.1
		c0-8.4,4.4-12.5,13.1-12.5C134.3,19.6,138.6,23.8,138.6,32.1z"/>
	<path class="st0" d="M178.3,39.2V19.6h5.3v19.6c0,6.1,1.8,7.9,7.8,7.9c6,0,7.8-1.7,7.8-7.9V19.6h5.2v19.6c0,8.4-4.4,12.5-13.1,12.5
		C182.6,51.7,178.3,47.6,178.3,39.2z"/>
	<path class="st1" d="M105,10.6v5.4h-5.4v-5.4H105z M105,19.4v32.3h-5.4V19.4H105z"/>
	<path class="st0" d="M171.8,49.8c-3.7,1.3-8.3,1.9-13.8,1.9c-9.1,0-13.7-5.6-13.7-16.7c0-10.3,4.8-15.4,14.5-15.4
		c2.6,0,5.1,0.5,7.5,1.5V7.9h5.4V49.8z M166.4,26.1c-2.2-1.1-4.7-1.7-7.5-1.7c-6.2,0-9.3,3.4-9.3,10.3c0,8.2,3.1,12.2,9.3,12.2
		c2.8,0,5.3-0.4,7.5-1.2V26.1z"/>
	<path class="st0" d="M210.1,50.2l0-4.9c3.6,1.2,7.2,1.8,10.9,1.8c4.9,0,7.3-1.5,7.3-4.6c0-2.9-1.7-4.3-5.1-4.3l-4.4,0
		c-6.6,0-9.9-3.2-9.9-9.5c0-6.1,4.3-9.2,12.8-9.2c3.7,0,7.3,0.5,10.9,1.5V26c-3.6-1.2-7.2-1.8-10.9-1.8c-5.1,0-7.6,1.5-7.6,4.6
		c0,2.9,1.6,4.3,4.8,4.3h4.4c7,0,10.5,3.2,10.5,9.5c0,6.1-4.2,9.2-12.7,9.2C217.3,51.7,213.7,51.2,210.1,50.2z"/>
	<path class="st1" d="M93.2,19.6c0,0-0.1,0-0.1,0c-3.8,0-6.7,0.8-8.9,2.4l-0.6-2.4h-3.6v12.6c0,0,0,0,0,0v19.6h5.2V32.2
		c0-6.1,1.8-7.9,7.8-7.9c0.4,0,0.8,0,1.2,0V23v-3.3v-0.1C93.9,19.6,93.5,19.6,93.2,19.6z"/>
</g>
</svg>
